<?xml version="1.0" encoding="UTF-8" standalone="no"?>
<svg
    version="1.0"
    width="380pt"
    height="380pt"
    viewBox="0 0 380 380"
    preserveAspectRatio="xMidYMid meet"
    xmlns="http://www.w3.org/2000/svg"
    xmlns:svg="http://www.w3.org/2000/svg">
    <style>
        :root {
            --primary:#8fceff;
            --secondary:#ffca7f;
            --fill:#000
        }
        #frame{
            fill:var(--fill);
            stroke:var(--primary);
            stroke-width:4.5
        }
        #letter-z,#text-net {
            fill:var(--primary)
        }
        #letter-d,#letter-k {
            fill:var(--secondary)
        }
    </style>
    <g
        transform="translate(0,380) scale(0.1,-0.1)"
        stroke="none"
        id="logo">
        <rect
            id="frame"
            width="355.36588"
            height="356.91068"
            x="12.634823"
            y="11.192303"
            ry="58.530952"
            transform="matrix(9.9999998,0,0,-9.9999998,0,3800)" />
        <path
            d="M 402.33163,3196.317 959,3198 l 459,-3 -70,-185 C 1210,2644 926,1889 815,1595 358,386 400,506 400,413 v -83 h 715 715 v 135 135 h -505 c -278,0 -505,4 -505,9 0,4 102,278 226,607 124,329 330,878 459,1219 128,341 254,674 279,740 42,109 46,128 46,208 v 87 h -665 l -765.26012,-7.366 c -4.21403,-88.8524 -0.52322,-177.5245 2.59175,-266.317 z"
            id="letter-z" />
        <g
            id="text-net"
            style="stroke-width:0.9975">
            <path
                d="M2990 3556 l0 -86 -41 0 -40 0 3 -42 c3 -42 4 -43 41 -46 l37 -3 0 -210 c0 -257 -4 -249 125 -249 l85 0 0 45 0 45 -50 0 -50 0 0 185 0 185 50 0 50 0 0 45 0 45 -50 0 -49 0 -3 83 -3 82 -52 3 -53 3 0 -85z"
                id="letter-t" />
            <path
                d="M1960 3194 l0 -274 55 0 55 0 0 230 0 230 80 0 80 0 0 -231 0 -230 53 3 52 3 2 245 c2 183 0 251 -10 270 l-13 25 -177 1 -177 2 0 -274z"
                id="letter-n" />
            <path
                d="M2494 3462 c-29 -19 -34 -55 -34 -272 l0 -221 25 -24 c23 -24 29 -25 163 -25 126 0 140 2 161 21 19 18 22 29 19 92 l-3 72 -50 0 -50 0 -3 -47 -3 -48 -75 0 -74 0 0 80 0 80 111 0 c61 0 119 5 130 10 17 10 19 22 19 130 0 164 5 160 -182 160 -79 0 -148 -4 -154 -8z m226 -137 l0 -65 -75 0 -75 0 0 65 0 65 75 0 75 0 0 -65z"
                id="letter-e" />
        </g>
        <path
            d="M1980 2184 l0 -586 368 5 c374 5 423 10 555 51 148 47 296 166 355 286 83 169 78 407 -12 548 -42 66 -131 141 -218 182 -158 76 -347 99 -815 100 l-233 0 0 -586z m546 406 c277 -19 396 -83 445 -239 42 -136 31 -299 -26 -396 -70 -120 -259 -185 -542 -185 l-113 0 0 415 0 415 53 0 c28 -1 111 -5 183 -10z"
            id="letter-d" />
        <path
            d="M1977 1514 c-4 -4 -7 -268 -7 -586 l0 -578 155 0 155 0 2 280 3 280 250 -206 c138 -113 291 -239 342 -280 l92 -74 169 2 169 3 -341 273 c-188 150 -358 287 -379 305 l-37 32 315 270 c173 148 315 273 315 277 0 4 -62 8 -139 8 l-138 0 -179 -157 c-98 -87 -237 -210 -308 -275 l-131 -116 -5 271 -5 272 -146 3 c-80 1 -148 -1 -152 -4z"
            id="letter-k" />
    </g>
</svg>
