<?xml version="1.0" standalone="no"?>
<!DOCTYPE svg PUBLIC "-//W3C//DTD SVG 20010904//EN"
 "http://www.w3.org/TR/2001/REC-SVG-20010904/DTD/svg10.dtd">
<svg version="1.0" xmlns="http://www.w3.org/2000/svg"
 width="380.000000pt" height="380.000000pt" viewBox="0 0 380.000000 380.000000"
 preserveAspectRatio="xMidYMid meet">
<metadata>
Created by potrace 1.11, written by Peter Selinger 2001-2013
</metadata>
<g transform="translate(0.000000,380.000000) scale(0.100000,-0.100000)"
fill="#000000" stroke="none">
<path d="M570 3699 c-216 -55 -376 -203 -447 -411 l-28 -83 -3 -1278 c-2
-1265 -2 -1278 18 -1359 61 -235 217 -392 457 -458 71 -19 106 -20 1330 -20
1191 0 1262 1 1329 19 147 38 272 118 350 223 59 79 88 142 114 243 19 78 20
113 20 1328 0 1231 0 1250 -21 1330 -62 247 -221 405 -469 468 -72 18 -130 19
-1325 18 -1198 -1 -1253 -2 -1325 -20z m2625 -44 c223 -47 403 -227 450 -450
22 -105 22 -2495 0 -2600 -46 -220 -228 -405 -444 -451 -55 -11 -280 -14
-1306 -14 -1364 0 -1297 -3 -1432 62 -94 45 -216 167 -261 261 -64 134 -62 83
-62 1446 0 1200 1 1240 20 1315 28 110 73 190 155 272 80 81 178 135 285 158
99 22 2493 22 2595 1z"/>
<path d="M2990 3556 l0 -86 -41 0 -40 0 3 -42 c3 -42 4 -43 41 -46 l37 -3 0
-210 c0 -257 -4 -249 125 -249 l85 0 0 45 0 45 -50 0 -50 0 0 185 0 185 50 0
50 0 0 45 0 45 -50 0 -49 0 -3 83 -3 82 -52 3 -53 3 0 -85z"/>
<path d="M500 3335 l0 -135 459 -2 459 -3 -70 -185 c-138 -366 -422 -1121
-533 -1415 -457 -1209 -415 -1089 -415 -1182 l0 -83 715 0 715 0 0 135 0 135
-505 0 c-278 0 -505 4 -505 9 0 4 102 278 226 607 124 329 330 878 459 1219
128 341 254 674 279 740 42 109 46 128 46 208 l0 87 -665 0 -665 0 0 -135z"/>
<path d="M1960 3194 l0 -274 55 0 55 0 0 230 0 230 80 0 80 0 0 -231 0 -230
53 3 52 3 2 245 c2 183 0 251 -10 270 l-13 25 -177 1 -177 2 0 -274z"/>
<path d="M2494 3462 c-29 -19 -34 -55 -34 -272 l0 -221 25 -24 c23 -24 29 -25
163 -25 126 0 140 2 161 21 19 18 22 29 19 92 l-3 72 -50 0 -50 0 -3 -47 -3
-48 -75 0 -74 0 0 80 0 80 111 0 c61 0 119 5 130 10 17 10 19 22 19 130 0 164
5 160 -182 160 -79 0 -148 -4 -154 -8z m226 -137 l0 -65 -75 0 -75 0 0 65 0
65 75 0 75 0 0 -65z"/>
<path d="M1980 2184 l0 -586 368 5 c374 5 423 10 555 51 148 47 296 166 355
286 83 169 78 407 -12 548 -42 66 -131 141 -218 182 -158 76 -347 99 -815 100
l-233 0 0 -586z m546 406 c277 -19 396 -83 445 -239 42 -136 31 -299 -26 -396
-70 -120 -259 -185 -542 -185 l-113 0 0 415 0 415 53 0 c28 -1 111 -5 183 -10z"/>
<path d="M1977 1514 c-4 -4 -7 -268 -7 -586 l0 -578 155 0 155 0 2 280 3 280
250 -206 c138 -113 291 -239 342 -280 l92 -74 169 2 169 3 -341 273 c-188 150
-358 287 -379 305 l-37 32 315 270 c173 148 315 273 315 277 0 4 -62 8 -139 8
l-138 0 -179 -157 c-98 -87 -237 -210 -308 -275 l-131 -116 -5 271 -5 272
-146 3 c-80 1 -148 -1 -152 -4z"/>
</g>
</svg>
